# xmcd
#
# Track frame offsets:
#	150
#	17717
#	33002
#	47185
#	59422
#	75465
#	87277
#	103140
#	120112
#	133922
#
# Disc length: 2013 seconds
#
# Revision: 0
# Processed by: cddbd v1.5.2PL0 Copyright (c) Steve Scherf et al.
# Submitted via: EasyCDDAExtractor 2010.6.0.0
#
DISCID=7707db0a
DTITLE=พงษ์สิทธิ์ คำภีร์ - เสือตัวที่11
DYEAR=1900
DGENRE=Country
TTITLE0=ทองดีทองเค
TTITLE1=เสือ11ตัว
TTITLE2=แรงยังมี
TTITLE3=คืนเปลี่ยว
TTITLE4=ช่างมันฉันไม่แคร์
TTITLE5=ตลอดเวลา
TTITLE6=อยู่บนดิน
TTITLE7=ถามยาย
TTITLE8=งง
TTITLE9=เหงา
EXTD=
EXTT0=
EXTT1=
EXTT2=
EXTT3=
EXTT4=
EXTT5=
EXTT6=
EXTT7=
EXTT8=
EXTT9=
PLAYORDER=
